<svg width="50" height="50" viewBox="0 0 50 50" fill="none" xmlns="http://www.w3.org/2000/svg">
<path d="M33.3333 20.8333C33.3333 23.0435 32.4553 25.1631 30.8925 26.7259C29.3297 28.2887 27.2101 29.1667 25 29.1667C22.7898 29.1667 20.6702 28.2887 19.1074 26.7259C17.5446 25.1631 16.6666 23.0435 16.6666 20.8333C16.6666 18.6232 17.5446 16.5036 19.1074 14.9408C20.6702 13.378 22.7898 12.5 25 12.5C27.2101 12.5 29.3297 13.378 30.8925 14.9408C32.4553 16.5036 33.3333 18.6232 33.3333 20.8333Z" fill="white"/>
<path fill-rule="evenodd" clip-rule="evenodd" d="M24.15 45.8166C13.0385 45.3708 4.16663 36.2208 4.16663 25C4.16663 13.4937 13.4937 4.16663 25 4.16663C36.5062 4.16663 45.8333 13.4937 45.8333 25C45.8333 36.5062 36.5062 45.8333 25 45.8333H24.7145C24.5257 45.8333 24.3375 45.8277 24.15 45.8166ZM11.6312 38.1458C11.4754 37.6985 11.4224 37.2218 11.4761 36.7512C11.5297 36.2806 11.6887 35.8281 11.9412 35.4273C12.1937 35.0266 12.5331 34.6878 12.9345 34.4362C13.3358 34.1846 13.7886 34.0266 14.2593 33.9739C22.3802 33.075 27.6698 33.1562 35.751 33.9927C36.2224 34.0418 36.6763 34.1978 37.0783 34.4488C37.4802 34.6998 37.8196 35.0393 38.0705 35.4413C38.3215 35.8433 38.4774 36.2973 38.5263 36.7687C38.5753 37.2401 38.516 37.7164 38.3531 38.1614C41.8167 34.6573 43.7564 29.927 43.75 25C43.75 14.6448 35.3552 6.24996 25 6.24996C14.6448 6.24996 6.24996 14.6448 6.24996 25C6.24996 30.1208 8.30308 34.7625 11.6312 38.1458Z" fill="white"/>
</svg>
