<svg width="26" height="26" viewBox="0 0 26 26" fill="none" xmlns="http://www.w3.org/2000/svg">
<path d="M12.9999 7.58331C14.0612 7.58325 15.0992 7.89498 15.9849 8.47977C16.8705 9.06456 17.5649 9.89666 17.9817 10.8727C18.3985 11.8487 18.5194 12.9257 18.3294 13.9699C18.1393 15.0141 17.6467 15.9794 16.9127 16.746C16.1788 17.5126 15.2357 18.0467 14.2008 18.2819C13.1659 18.5172 12.0847 18.4432 11.0914 18.0692C10.0982 17.6952 9.23673 17.0376 8.614 16.1782C7.99127 15.3188 7.63473 14.2954 7.58867 13.2351L7.58325 13L7.58867 12.7649C7.64925 11.3704 8.24583 10.0531 9.25399 9.08769C10.2622 8.12232 11.6041 7.58339 12.9999 7.58331Z" fill="#4F9F5A"/>
</svg>
